<?xml version="1.0" encoding="utf-8"?>
<!-- Generator: Adobe Illustrator 25.4.1, SVG Export Plug-In . SVG Version: 6.00 Build 0)  -->
<svg version="1.1" id="Layer_1" xmlns="http://www.w3.org/2000/svg" xmlns:xlink="http://www.w3.org/1999/xlink" x="0px" y="0px"
	 viewBox="0 0 1500 1500" style="enable-background:new 0 0 1500 1500;" xml:space="preserve">
<style type="text/css">
	.st0{fill:#14152A;}
	.st1{fill:#4462AB;}
	.st2{fill:#3F5EA8;}
</style>
<g id="Layer_2_00000074439192293016809450000007008156918585562547_">
	<g>
		<path class="st0" d="M998.8,273.5c0,90.1,2.6,163.7,7.1,163.7c3.4,0,54.7-9.9,114.4-22.1l107.6-23V251.4V109.8h-114.7H998.8V273.5
			z"/>
		<path class="st0" d="M707.8,544.3v286.4l24.8-15.5c13.1-9,64.3-52.5,114.4-95.7l90-79.5V448.6V257H822.5H708.1v287.3H707.8z"/>
		<path class="st0" d="M414.3,467.6c-8,6.5-8,529.6-0.9,536.7c5.4,5,107.6-48.1,181.6-95l42.4-26.1V672V461.7H529
			C469,461.7,417.1,464.2,414.3,467.6z"/>
		<path class="st0" d="M998.8,514.8c0,24.5,3.4,45,8,45c4.3,0,17.7-13,28.2-29.5l19.4-30.1l-19.4-14.6
			C1003.9,461.7,998.8,465.7,998.8,514.8z"/>
		<path class="st0" d="M1148.5,621.3c-8.8,9.9-8.8,12.4,2.6,12.4c21.9,0,41.6-9,36.2-17.1C1180.4,604.9,1160.8,607.4,1148.5,621.3z"
			/>
		<path class="st0" d="M1062.3,701.5l-63.5,59.6l1.7,63.1c0.9,34.5,4.3,63.1,8.8,63.1c10.5,0,124.4-93.2,164.8-135.7l37-39.1
			l-29-25.5C1123.7,637.8,1131.7,636.9,1062.3,701.5z"/>
		<path class="st0" d="M859.6,866.1c-40.4,30.1-91.7,65.5-112.7,80.1c-37,24.5-38.7,28-38.7,65.5c0,21.1,2.6,39.1,5.4,39.1
			c10.5,0,179.9-86,202.7-102.2c20.2-15.5,21.9-20.5,19.4-76.1L933,813L859.6,866.1z"/>
		<path class="st0" d="M1179.3,949.3c-24.8,16.5-74.9,47.5-111.9,70.5l-68.6,41v150.6v150.6h114.4h114.4v-220.8
			c0-122.1-0.9-220.8-2.6-220.8C1224.2,919.8,1203.2,933.2,1179.3,949.3z"/>
		<path class="st0" d="M590.5,1043.5c-23.9,14-72.3,37-109.3,51.6c-110.2,46-74,54,67.8,15.5c41.6-10.6,78.6-23,82-26.1
			c4.3-4,6.3-20.5,4.3-36l-2.6-29.5L590.5,1043.5z"/>
		<path class="st0" d="M853.3,1128.6c-38.7,18.9-87.1,40.1-107.6,47.5l-37.9,14v86v86h114.4h114.4V1232c0-72.1-2.6-131.7-6.3-133.3
			C926.5,1096.9,892,1110.6,853.3,1128.6z"/>
		<path class="st0" d="M580,1226.7c-23.9,5.6-73.2,15.5-108.5,20.5l-64.3,9.9l2.6,50l2.6,50.6l112.7,2.5l111.9,2.5v-74.5
			c0-40.1-2.6-73.6-6.3-72.7C626.7,1215.5,604.8,1221.1,580,1226.7z"/>
		<path class="st1" d="M1170.7,429.1c-14.2,4-49.3,11.5-77.4,16.5l-52.1,9.9l24.8,23.6l23.9,23l-25.6,35.1
			c-48.4,67.1-277.6,271.8-395.7,353.5c-125.3,86-270.5,158.7-365.8,180.8c-97.1,23.6-185.9,9-246.8-40.1l-21.1-17.1l21.9,28.6
			c13.1,15.5,42.4,39.1,65.2,53.1c39.6,23,48.4,24.5,127,24.5c95.1,0,138.4-10.6,251.1-62.1c169.1-77.7,427.3-260.9,609-432.1
			l60.9-58.1l29,26.1l29,26.1v-69.6c0-37.6,2.6-82.6,5.4-99.7c5.4-28,4.3-30.1-15.1-29.5C1206.6,421.6,1185.5,425.7,1170.7,429.1z"
			/>
		<path class="st2" d="M1278,636.9L1183,654l32.7,30.1l32.7,29.5l-91.7,86c-261.9,243.2-665.6,402.6-918.7,361.9
			c-84.6-14-145.5-44.1-202.7-102.2c-37.9-37.6-42.4-41-27.3-16.5c8.8,15.5,42.4,53.1,74,82.6c90.8,85.1,195.6,113.7,357.9,97.5
			c240.6-23.6,543.8-157.2,806.5-353.5l97.9-73.6l26.5,30.1c15.1,16.5,29.9,27,33.6,23c3.4-3.4,9.7-57.2,13.1-119.6l6.3-112.1
			l-24.8,0.9C1384.8,618.9,1330.1,626.9,1278,636.9z"/>
	</g>
</g>
</svg>
