<?xml version="1.0" encoding="utf-8"?>
<!-- Generator: Adobe Illustrator 25.4.1, SVG Export Plug-In . SVG Version: 6.00 Build 0)  -->
<svg version="1.1" id="Layer_1" xmlns="http://www.w3.org/2000/svg" xmlns:xlink="http://www.w3.org/1999/xlink" x="0px" y="0px"
	 viewBox="0 0 1423.8 1171.6" style="enable-background:new 0 0 1423.8 1171.6;" xml:space="preserve">
<style type="text/css">
	.st0{fill:#FFFFFF;}
	.st1{fill:#6394FD;}
</style>
<g id="Layer_2_00000074439192293016809450000007008156918585562547_">
	<g>
		<path class="st0" d="M937.4,153.9c0,84.2,2.4,153.1,6.6,153.1c3.2,0,50.8-9.3,106.5-20.6l100.1-21.5V133.2V0.8h-106.7H937.4V153.9
			z"/>
		<path class="st0" d="M666.7,407.1v267.8l23-14.5c12.2-8.4,59.8-49.1,106.5-89.5l83.7-74.4V317.7V138.5H773.4H667v268.6H666.7z"/>
		<path class="st0" d="M393.7,335.4c-7.4,6.1-7.4,495.2-0.8,501.9c5,4.6,100.1-45,169-88.9l39.5-24.4V526.5V329.9h-101
			C444.5,329.9,396.3,332.2,393.7,335.4z"/>
		<path class="st0" d="M937.4,379.5c0,22.9,3.2,42.1,7.4,42.1c4,0,16.4-12.2,26.2-27.6l18-28.2l-18-13.7
			C942.1,329.9,937.4,333.6,937.4,379.5z"/>
		<path class="st0" d="M1076.7,479.1c-8.2,9.3-8.2,11.6,2.4,11.6c20.4,0,38.7-8.4,33.6-16C1106.3,463.7,1088.1,466.1,1076.7,479.1z"
			/>
		<path class="st0" d="M996.4,554.1l-59.1,55.8l1.6,59c0.8,32.2,4,59,8.2,59c9.8,0,115.7-87.1,153.3-126.9l34.4-36.6l-27-23.8
			C1053.6,494.5,1061,493.7,996.4,554.1z"/>
		<path class="st0" d="M807.9,708c-37.6,28.2-85.3,61.3-104.9,74.9c-34.4,22.9-36,26.1-36,61.3c0,19.7,2.4,36.6,5,36.6
			c9.8,0,167.4-80.4,188.6-95.6c18.8-14.5,20.4-19.2,18-71.2l-2.4-55.8L807.9,708z"/>
		<path class="st0" d="M1105.3,785.8c-23,15.4-69.6,44.4-104.1,65.9L937.4,890v141v140.9h106.5h106.5V965.3
			c0-114.1-0.8-206.5-2.4-206.5C1147.1,758.2,1127.5,770.7,1105.3,785.8z"/>
		<path class="st0" d="M557.6,873.8c-22.2,13.1-67.3,34.6-101.7,48.2c-102.5,43-68.9,50.5,63,14.5c38.7-9.9,73.1-21.5,76.3-24.4
			c4-3.8,5.8-19.2,4-33.7l-2.4-27.6L557.6,873.8z"/>
		<path class="st0" d="M802,953.4c-36,17.7-81,37.5-100.1,44.4l-35.2,13.1v80.4v80.4h106.5h106.5V1050c0-67.4-2.4-123.1-5.8-124.6
			C870.1,923.8,838.1,936.6,802,953.4z"/>
		<path class="st0" d="M545.8,1045.8c-23.1,5.6-70.7,15.4-104.8,20.4l-62.1,9.9l2.5,49.7l2.5,50.3l108.9,2.5l108.1,2.5V1107
			c0-39.8-2.5-73.2-6-72.3C590.9,1034.7,569.7,1040.3,545.8,1045.8z"/>
		<path class="st1" d="M1097.3,299.4c-13.2,3.8-45.8,10.7-72,15.4l-48.5,9.3l23,22.1l22.2,21.5l-23.8,32.8
			C953.2,463.2,740,654.6,630.1,731c-116.5,80.4-251.6,148.4-340.3,169c-90.3,22.1-172.9,8.4-229.6-37.5l-19.6-16L61,873.2
			c12.2,14.5,39.5,36.6,60.6,49.7c36.8,21.5,45,22.9,118.1,22.9c88.5,0,128.7-9.9,233.6-58.1c157.3-72.6,397.5-244,566.5-404
			l56.7-54.3l27,24.4l27,24.4v-65.1c0-35.1,2.4-77.3,5-93.2c5-26.1,4-28.2-14-27.6C1130.7,292.4,1111.1,296.2,1097.3,299.4z"/>
		<path class="st1" d="M1197.2,493.7l-88.5,16l30.5,28.2l30.5,27.6l-85.3,80.4c-243.6,227.4-619.2,376.4-854.6,338.4
			C151.1,971.1,94.4,943,41.2,888.6C6,853.5,1.8,850.3,15.8,873.2c8.2,14.5,39.5,49.7,68.9,77.3c84.5,79.6,181.9,106.3,332.9,91.2
			c223.8-22.1,505.8-147,750.2-330.5l91.1-68.8l24.6,28.2c14,15.4,27.8,25.3,31.2,21.5c3.2-3.2,9-53.4,12.2-111.8l5.8-104.8l-23,0.9
			C1296.5,476.8,1245.6,484.4,1197.2,493.7z"/>
	</g>
</g>
</svg>
